{"title":"Hunter Hayes Ft. Jason Mraz - Everybody's Got Somebody But Me [M","uid":9205221,"size":88222863,"categoryP":"video","categoryS":"music_videos","magnet":"?xt=urn:btih:36b7c896d9fdd603ba8aabfff590f7e1a770868a&amp;dn=Hunter+Hayes+Ft.+Jason+Mraz+-+Everybody%27s+Got+Somebody+But+Me+%5BM&amp;tr=udp%3A%2F%2Ftracker.openbittorrent.com%3A80&amp;tr=udp%3A%2F%2Fopen.demonii.com%3A1337&amp;tr=udp%3A%2F%2Ftracker.coppersurfer.tk%3A6969&amp;tr=udp%3A%2F%2Fexodus.desync.com%3A6969","seeders":2,"leechers":3,"uploader":"Sbyky","files":1,"time":1384683246,"description":"[IMG]http://cdn.piczend.com/images/JzWU544y/1384615509_everybodysgotsomebodybutme.jpg[/IMG]\n\nGeneral\nComplete name                            : Hunter Hayes Ft. Jason Mraz - Everybody's Got Somebody But Me [Music Video] 1080p [Sbyky].MP4\nFormat                                   : MPEG-4\nFormat profile                           : Base Media\nCodec ID                                 : isom\nFile size                                : 84.1 MiB\nDuration                                 : 3mn 0s\nOverall bit rate mode                    : Variable\nOverall bit rate                         : 3 920 Kbps\nEncoded date                             : UTC 2013-11-12 10:00:36\nTagged date                              : UTC 2013-11-12 10:00:36\n\nVideo\nID                                       : 1\nFormat                                   : AVC\nFormat/Info                              : Advanced Video Codec\nFormat profile                           : &lt;a class=&quot;__cf_email__&quot; href=&quot;/cdn-cgi/l/email-protection&quot; data-cfemail=&quot;8cc4e5ebe4ccc0b8a2bc&quot;&gt;[email&amp;#160;protected]&lt;/a&gt;&lt;script cf-hash='f9e31' type=&quot;text/javascript&quot;&gt;\n/* &lt;![CDATA[ */!function(){try{var t=&quot;currentScript&quot;in document?document.currentScript:function(){for(var t=document.getElementsByTagName(&quot;script&quot;),e=t.length;e--;)if(t[e].getAttribute(&quot;cf-hash&quot;))return t[e]}();if(t&amp;&amp;t.previousSibling){var e,r,n,i,c=t.previousSibling,a=c.getAttribute(&quot;data-cfemail&quot;);if(a){for(e=&quot;&quot;,r=parseInt(a.substr(0,2),16),n=2;a.length-n;n+=2)i=parseInt(a.substr(n,2),16)^r,e+=String.fromCharCode(i);e=document.createTextNode(e),c.parentNode.replaceChild(e,c)}}}catch(u){}}();/* ]]&gt; */&lt;/script&gt;\nFormat settings, CABAC                   : Yes\nFormat settings, ReFrames                : 3 frames\nCodec ID                                 : avc1\nCodec ID/Info                            : Advanced Video Coding\nDuration                                 : 2mn 59s\nBit rate                                 : 3 665 Kbps\nWidth                                    : 1 920 pixels\nHeight                                   : 1 080 pixels\nDisplay aspect ratio                     : 16:9\nFrame rate mode                          : Variable\nFrame rate                               : 23.976 fps\nMinimum frame rate                       : 23.974 fps\nMaximum frame rate                       : 4 090.909 fps\nColor space                              : YUV\nChroma subsampling                       : 4:2:0\nBit depth                                : 8 bits\nScan type                                : Progressive\nBits/(Pixel*Frame)                       : 0.074\nStream size                              : 78.6 MiB (93%)\nEncoded date                             : UTC 2013-11-12 10:00:36\nTagged date                              : UTC 2013-11-12 10:00:36\n\nAudio\nID                                       : 2\nFormat                                   : AAC\nFormat/Info                              : Advanced Audio Codec\nFormat profile                           : LC\nCodec ID                                 : 40\nDuration                                 : 3mn 0s\nBit rate mode                            : Variable\nBit rate                                 : 254 Kbps\nChannel(s)                               : 2 channels\nChannel positions                        : Front: L R\nSampling rate                            : 44.1 KHz\nCompression mode                         : Lossy\nDelay relative to video                  : 42ms\nStream size                              : 5.44 MiB (6%)\nEncoded date                             : UTC 2013-11-12 09:52:55\nTagged date                              : UTC 2013-11-12 09:52:55\n\nShared By Sbyky\n[IMG]http://cdn.piczend.com/images/X3Ag13N3/1379453786_saythanks.gif[/IMG]\n[IMG]http://cdn.piczend.com/images/gGqhX2S8/1379453780_keepseeding.gif[/IMG]","torrent":{"xt":"urn:btih:36b7c896d9fdd603ba8aabfff590f7e1a770868a","amp;dn":"Hunter+Hayes+Ft.+Jason+Mraz+-+Everybody%27s+Got+Somebody+But+Me+%5BM","amp;tr":["udp%3A%2F%2Ftracker.openbittorrent.com%3A80","udp%3A%2F%2Fopen.demonii.com%3A1337","udp%3A%2F%2Ftracker.coppersurfer.tk%3A6969","udp%3A%2F%2Fexodus.desync.com%3A6969"],"infoHash":"36b7c896d9fdd603ba8aabfff590f7e1a770868a","infoHashBuffer":{"type":"Buffer","data":[54,183,200,150,217,253,214,3,186,138,171,255,245,144,247,225,167,112,134,138]},"announce":[],"urlList":[]}}